<svg viewBox="0 0 746 517" xmlns="http://www.w3.org/2000/svg" xmlns:xlink="http://www.w3.org/1999/xlink"><view id="answer" viewBox="690.8 227 8 13"/><svg width="8" height="13" viewBox="0 0 8 13" x="690.8" y="227" xmlns="http://www.w3.org/2000/svg"><g transform="translate(1 1)" fill="none" fill-rule="evenodd" opacity=".94"><path d="M3 8.25V6c.77 0 3-.71 3-3.107C6 1.326 4.653 0 3 0 1.343 0 0 1.29 0 2.893" stroke="#5D5D5D"/><circle fill="#5D5D5D" cx="3" cy="11" r="1"/></g></svg><view id="arrow-down-green" viewBox="632.8 227 29 17"/><svg width="29" height="17" viewBox="0 0 29 17" x="632.8" y="227" xmlns="http://www.w3.org/2000/svg"><title>Path</title><path d="M.534.57A1.857 1.857 0 000 1.877c0 .49.192.959.534 1.305l12.37 12.539a1.81 1.81 0 001.288.54 1.81 1.81 0 001.288-.54L27.85 3.18a1.86 1.86 0 00.507-1.8A1.833 1.833 0 0027.049.059a1.808 1.808 0 00-1.776.517L14.192 11.81 3.111.575A1.81 1.81 0 001.823.032 1.81 1.81 0 00.534.571z" fill="#19AA57" fill-rule="evenodd"/></svg><view id="arrow-down-grey" viewBox="661.8 227 29 17"/><svg width="29" height="17" viewBox="0 0 29 17" x="661.8" y="227" xmlns="http://www.w3.org/2000/svg"><title>Path</title><path d="M.534.57A1.857 1.857 0 000 1.877c0 .49.192.959.534 1.305l12.37 12.539a1.81 1.81 0 001.288.54 1.81 1.81 0 001.288-.54L27.85 3.18a1.86 1.86 0 00.507-1.8A1.833 1.833 0 0027.049.059a1.808 1.808 0 00-1.776.517L14.192 11.81 3.111.575A1.81 1.81 0 001.823.032 1.81 1.81 0 00.534.571z" fill="#656471" fill-rule="evenodd"/></svg><view id="attention" viewBox="691.8 136 50 50"/><svg viewBox="0 0 50 50" width="50" height="50" x="691.8" y="136" xmlns="http://www.w3.org/2000/svg"><path d="M25 3c12.1 0 22 9.9 22 22s-9.9 22-22 22S3 37.1 3 25 12.9 3 25 3m0-3C11.2 0 0 11.2 0 25s11.2 25 25 25 25-11.2 25-25S38.8 0 25 0z" fill="#727272"/><path d="M23.4 28.8h3.3l.8-17.2h-4.9l.8 17.2zm1.6 7.7c1.5 0 2.5-1.1 2.5-2.4s-1-2.4-2.5-2.4-2.5 1.1-2.5 2.4 1 2.4 2.5 2.4z" fill="#878787"/></svg><view id="bloked" viewBox="448.8 253 120 106"/><svg width="120" height="106" viewBox="0 0 120 106" x="448.8" y="253" xmlns="http://www.w3.org/2000/svg"><title>bloked</title><defs><path d="M23.677 17.5a1.5 1.5 0 010 3h-7.693V10a1.5 1.5 0 113 0v7.5h4.693zM18 33c8.284 0 15-6.716 15-15 0-8.284-6.716-15-15-15C9.716 3 3 9.716 3 18c0 8.284 6.716 15 15 15zm0 3C8.059 36 0 27.941 0 18S8.059 0 18 0s18 8.059 18 18-8.059 18-18 18z" id="aea"/></defs><g fill="none" fill-rule="evenodd"><path d="M47 51.5c0-.828.665-1.5 1.503-1.5h16.994c.83 0 1.503.666 1.503 1.5 0 .828-.665 1.5-1.503 1.5H48.503c-.83 0-1.503-.666-1.503-1.5zm0-11c0-.828.68-1.5 1.505-1.5h30.99a1.5 1.5 0 110 3h-30.99A1.499 1.499 0 0147 40.5zm0-11c0-.828.68-1.5 1.505-1.5h30.99a1.5 1.5 0 110 3h-30.99A1.499 1.499 0 0147 29.5z" fill="#545461"/><path d="M93.677 87.5a1.5 1.5 0 010 3h-7.693V80a1.5 1.5 0 113 0v7.5h4.693zM88 103c8.284 0 15-6.716 15-15 0-8.284-6.716-15-15-15-8.284 0-15 6.716-15 15 0 8.284 6.716 15 15 15zm0 3c-9.941 0-18-8.059-18-18s8.059-18 18-18 18 8.059 18 18-8.059 18-18 18z" fill="#A360F8" fill-rule="nonzero"/><g transform="translate(70 70)"><mask id="aeb" fill="#fff"><use xlink:href="#aea"/></mask><g mask="url(#aeb)" fill="#FA9733"><path d="M0 0h36v36H0z"/></g></g><g fill="#ADADB3"><g transform="translate(0 40)"><rect width="6" height="2" rx="1"/><rect x="10" width="6" height="2" rx="1"/></g><g transform="translate(7 33)"><rect width="2" height="6" rx="1"/><rect y="10" width="2" height="6" rx="1"/></g></g><g fill="#ADADB3"><g transform="translate(104 7)"><rect width="6" height="2" rx="1"/><rect x="10" width="6" height="2" rx="1"/></g><g transform="translate(111)"><rect width="2" height="6" rx="1"/><rect y="10" width="2" height="6" rx="1"/></g></g><path d="M64 96H41a9 9 0 01-9-9V17a9 9 0 019-9h46a9 9 0 019 9v47" stroke="#545461" stroke-width="3"/></g></svg><view id="check" viewBox="0 0 448.8 448.8"/><svg width="448.8" height="448.8" viewBox="0 0 448.8 448.8" xmlns="http://www.w3.org/2000/svg"><path fill="#333" d="M142.8 323.85L35.7 216.75 0 252.45l142.8 142.8 306-306-35.7-35.7z"/></svg><view id="check-on" viewBox="543.8 359 24 24"/><svg width="24" height="24" viewBox="0 0 24 24" x="543.8" y="359" xmlns="http://www.w3.org/2000/svg"><defs><path d="M0 4c0-2.2 1.8-4 4-4h16c2.2 0 4 1.8 4 4v16c0 2.2-1.8 4-4 4H4c-2.2 0-4-1.8-4-4V4z" id="aga"/><path id="agc" d="M0 0h375v667H0z"/></defs><g fill="none" fill-rule="evenodd"><mask id="agb" fill="#fff"><use xlink:href="#aga"/></mask><use fill="#D8D8D8" xlink:href="#aga"/><g mask="url(#agb)"><g transform="translate(-48 -340)"><mask id="agd" fill="#fff"><use xlink:href="#agc"/></mask><path fill="#19AA57" mask="url(#agd)" d="M43 335h34v34H43z"/></g></g><path stroke="#F3F3F3" stroke-width="3" stroke-linecap="round" stroke-linejoin="round" d="M7 11.913L10.76 17 19 6"/></g></svg><view id="cross" viewBox="519.8 359 24 24"/><svg viewBox="0 0 24 24" width="24" height="24" x="519.8" y="359" xmlns="http://www.w3.org/2000/svg"><path d="M3.5 4.9c-.4-.4-.4-1 0-1.4s1-.4 1.4 0l15.6 15.6c.4.4.4 1 0 1.4-.4.4-1 .4-1.4 0L3.5 4.9z" fill="#b5b5b5"/><path d="M19.1 3.5c.4-.4 1-.4 1.4 0 .4.4.4 1 0 1.4L4.9 20.5c-.4.4-1 .4-1.4 0-.4-.4-.4-1 0-1.4L19.1 3.5z" fill="#b5b5b5"/></svg><view id="icon-close" viewBox="715.8 330 24 24"/><svg width="24" height="24" viewBox="0 0 24 24" x="715.8" y="330" xmlns="http://www.w3.org/2000/svg"><title>icon-close</title><path d="M11.988 10.574L5 3.586 3.586 5l6.988 6.988-6.988 6.988L5 20.39l6.988-6.988 6.988 6.988 1.414-1.414-6.988-6.988L20.39 5l-1.414-1.414z" fill="#333"/></svg><view id="icon-edit" viewBox="667.8 330 24 24"/><svg width="24" height="24" viewBox="0 0 24 24" x="667.8" y="330" xmlns="http://www.w3.org/2000/svg"><title>icon-edit</title><path d="M19.071 7.757l2.121-2.121-2.828-2.828-2.121 2.12 2.828 2.83zm-1.414 1.415l-2.829-2.829L4.712 16.46l.056 2.773 2.773.056L17.657 9.172zm.707-9.193l5.657 5.657L8.352 21.305l-5.544-.113-.113-5.544L18.364-.021z" fill="#333"/></svg><view id="icon-exit" viewBox="729.8 193 15 18"/><svg width="15" height="18" viewBox="0 0 15 18" x="729.8" y="193" xmlns="http://www.w3.org/2000/svg"><g fill="#000014" fill-rule="evenodd"><path d="M9.917 0v2H2.914c-.551 0-.997.45-.997 1.007v11.986c0 .557.446 1.007.997 1.007h7.003v2h-6.87a3.005 3.005 0 01-3-2.993V2.993a3.003 3.003 0 013-2.993h6.87z"/><rect x="5.917" y="8" width="8" height="2" rx="1"/><path d="M9.987 13.012a1 1 0 001.411.003l3.227-3.227a1 1 0 00-1.414-1.414L9.984 11.6a.995.995 0 00.003 1.41z"/><path d="M9.992 5.037a1 1 0 011.41-.003L14.63 8.26a1 1 0 01-1.414 1.414L9.988 6.448a.995.995 0 01.004-1.41z"/></g></svg><view id="icon-reload" viewBox="691.8 330 24 24"/><svg width="24" height="24" viewBox="0 0 24 24" x="691.8" y="330" xmlns="http://www.w3.org/2000/svg"><title>icon-reload</title><path d="M11.5 4.015A8 8 0 1020 12h-2a6 6 0 11-6.5-5.98v1.761l4.746-2.74L11.5 2.3v1.715z" fill="#333" fill-rule="evenodd"/></svg><view id="icon-user" viewBox="592.8 227 40 18"/><svg width="40" height="18" viewBox="0 0 40 18" x="592.8" y="227" xmlns="http://www.w3.org/2000/svg"><g fill="none" fill-rule="evenodd"><path d="M-4-3h24v24H-4z"/><g stroke="#19AA57" stroke-width="2"><path d="M1.994 17h12.012A.998.998 0 0015 16c0-2.773-2.232-5-5-5H6c-2.773 0-5 2.224-5 5 0 .553.445 1 .994 1z"/><circle cx="8" cy="4" r="3"/></g><path d="M22-4h24v24H22z"/><path stroke="#19AA57" stroke-width="2" stroke-linecap="round" stroke-linejoin="round" d="M38.243 7L34 11.243 29.757 7"/></g></svg><view id="logotype-sberpay" viewBox="660.8 193 69 24"/><svg width="69" height="24" fill="none" viewBox="0 0 69 24" x="660.8" y="193" xmlns="http://www.w3.org/2000/svg"><path d="M36.116 14.291v5.064H33.29V3.097h5.266c4.997 0 7.121 1.836 7.121 5.506 0 3.785-2.487 5.688-7.121 5.688h-2.44zm0-8.521v5.848h2.655c2.623 0 3.98-.882 3.98-3.088 0-1.997-1.18-2.763-3.933-2.763l-2.702.003z" fill="#fff"/><path d="M47.349 8.751c.759-.553 2.145-1.01 4.133-1.01 3.37 0 5.034 1.124 5.034 4.038v7.397h-2.54v-2.018c-.554 1.299-1.964 2.197-3.81 2.197-2.332 0-3.715-1.278-3.715-3.475 0-2.557 1.916-3.274 4.754-3.274h2.608v-.49c0-1.592-.783-2.087-2.331-2.087-2.124 0-3.347.808-4.13 1.995l-.003-3.273zm6.462 6.468v-.907h-2.284c-1.593 0-2.356.292-2.356 1.299 0 .85.645 1.39 1.847 1.39 1.822 0 2.678-1.01 2.792-1.782z" fill="#fff"/><path d="M57.29 7.742h3.01l3.16 7.965 2.583-7.965h2.86L64.29 20.587C63.274 23.373 62.24 24 60.716 24c-.717 0-1.505-.21-1.846-.51v-2.533c.371.364.867.573 1.385.582.828 0 1.45-.558 1.89-2.122L57.29 7.742z" fill="#fff"/><path d="M6.968 8.928v3.58l4.79 2.976 11.468-8.36a12.447 12.447 0 00-1.51-2.479l-9.958 7.258-4.79-2.975z" fill="#fff"/><path d="M21.225 11.746v.248a9.234 9.234 0 11-4.024-7.61l2.341-1.717a12 12 0 104.265 7.182l-2.582 1.897z" fill="#fff"/></svg><view id="logotype-sberspasibo" viewBox="448.8 0 297 86"/><svg width="297" height="86" viewBox="0 0 297 86" x="448.8" xmlns="http://www.w3.org/2000/svg"><defs><radialGradient id="aoc" cx="50%" cy="50%" r="50%" fx="50%" fy="50%" gradientTransform="matrix(1 0 0 .99767 0 .001)"><stop offset="15%" stop-color="#42E3B4"/><stop offset="100%" stop-color="#42E3B4" stop-opacity="0"/></radialGradient><radialGradient id="aod" cx="50%" cy="50%" r="50%" fx="50%" fy="50%" gradientTransform="matrix(1 0 0 .99768 0 .001)"><stop offset="1%" stop-color="#A0E720"/><stop offset="100%" stop-color="#A0E720" stop-opacity="0"/></radialGradient><radialGradient id="aoe" cx="50%" cy="50%" r="64.849%" fx="50%" fy="50%" gradientTransform="matrix(.77103 0 0 1 .114 0)"><stop offset="10%" stop-color="#FAED00"/><stop offset="100%" stop-color="#FAED00" stop-opacity="0"/></radialGradient><radialGradient id="aof" cx="50%" cy="50%" r="50%" fx="50%" fy="50%" gradientTransform="matrix(1 0 0 .99767 0 .001)"><stop offset="15%" stop-color="#00D900"/><stop offset="100%" stop-color="#00D900" stop-opacity="0"/></radialGradient><radialGradient id="aog" cx="50%" cy="50%" r="50%" fx="50%" fy="50%" gradientTransform="matrix(1 0 0 .99767 0 .001)"><stop offset="15%" stop-color="#21A038"/><stop offset="100%" stop-color="#21A038" stop-opacity="0"/></radialGradient><radialGradient id="aoh" cx="50%" cy="50%" r="50%" fx="50%" fy="50%" gradientTransform="matrix(1 0 0 .99768 0 .001)"><stop offset="15%" stop-color="#21A038"/><stop offset="100%" stop-color="#21A038" stop-opacity="0"/></radialGradient><radialGradient id="aoi" cx="50%" cy="50%" r="58.198%" fx="50%" fy="50%" gradientTransform="matrix(.85914 0 0 1 .07 0)"><stop offset="20%" stop-color="#0087CD"/><stop offset="90%" stop-color="#0087CD" stop-opacity="0"/></radialGradient><radialGradient id="aoj" cx="50%" cy="50%" r="64.136%" fx="50%" fy="50%" gradientTransform="matrix(.7796 0 0 1 .11 0)"><stop offset="10%" stop-color="#01A7FA"/><stop offset="100%" stop-color="#00ADEE" stop-opacity="0"/></radialGradient><path id="aoa" d="M297 43c0 23.747-18.865 43-42.135 43H0V43C0 19.253 18.865 0 42.135 0h212.73C278.135 0 297 19.253 297 43z"/></defs><g fill="none" fill-rule="evenodd"><mask id="aob" fill="#fff"><use xlink:href="#aoa"/></mask><g fill-rule="nonzero" mask="url(#aob)"><path fill="#4EDEA3" d="M297 0H0v86h297z"/><path fill="url(#aoc)" d="M214.5 33.846h-165v165.385h165z" transform="translate(-99 -100)"/><path fill="url(#aod)" d="M272.25 95.039h-165v165.384h165z" transform="translate(-99 -100)"/><path fill="url(#aoe)" d="M214.5 100H0v165.385h214.5z" transform="translate(-99 -100)"/><path fill="url(#aof)" d="M363 100H198v165.385h165z" transform="translate(-99 -100)"/><path fill="url(#aog)" d="M429 100H264v165.385h165z" transform="translate(-99 -100)"/><path fill="url(#aoh)" d="M462 58.654H297v165.384h165z" transform="translate(-99 -100)"/><path fill="url(#aoi)" d="M429 .769H198v198.462h231z" transform="translate(-99 -100)"/><path fill="url(#aoj)" d="M330 42.115H181.5v115.77H330z" transform="translate(-99 -100)"/></g><path fill="#FFF" fill-rule="nonzero" d="M42.135 41.59l-8.68-5.453v6.56l8.68 5.454 20.774-15.344a22.788 22.788 0 00-2.733-4.542L42.135 41.591z"/><path fill="#FFF" fill-rule="nonzero" d="M64.932 42.233c0-1.397-.125-2.765-.367-4.095l-4.907 3.625c.005.156.007.312.007.468 0 9.689-7.865 17.572-17.531 17.572-9.666 0-17.531-7.883-17.531-17.572s7.865-17.572 17.53-17.572c3.665 0 7.068 1.133 9.885 3.068l4.433-3.277a22.663 22.663 0 00-14.317-5.07c-12.59 0-22.798 10.231-22.798 22.85 0 12.62 10.208 22.852 22.798 22.852 12.59.002 22.798-10.229 22.798-22.849zm44.22 13.293c-1.7 2.045-6.169 4.285-12.044 4.285-11.074-.048-18.456-6.621-18.456-17.623 0-10.272 7.286-17.526 18.554-17.526 5.343 0 9.276 1.654 11.269 3.068v8.47c-2.041-3.017-6.17-5.939-11.269-5.939-7.431 0-11.996 4.82-11.996 11.977 0 6.62 4.03 11.83 11.85 11.976 5.925 0 10.102-2.727 12.095-6.181v7.492h-.003zm21.563-15.577h-10.588v19.327h-5.684V34.934h21.953v24.342h-5.681zm13.16-3.312c1.602-1.217 4.517-2.191 8.694-2.191 7.091 0 10.588 2.434 10.588 8.762v16.064h-5.343v-4.38c-1.167 2.822-4.129 4.77-8.014 4.77-4.905 0-7.82-2.776-7.82-7.546 0-5.55 4.031-7.108 10.004-7.108h5.49v-1.07c0-3.458-1.651-4.528-4.905-4.528-4.469 0-7.044 1.752-8.694 4.333v-7.106zm13.599 14.068v-1.998h-4.809c-3.351 0-4.956.634-4.956 2.823 0 1.851 1.361 3.018 3.885 3.018 3.842.002 5.638-2.187 5.88-3.843zm23.508 9.106c-7.771 0-12.918-4.285-12.918-12.805 0-8.373 5.246-12.56 12.969-12.61 3.256.048 6.17 1.023 7.772 2.24v7.108c-1.652-2.58-4.224-4.333-7.772-4.381-4.662 0-7.187 2.482-7.187 7.4v.73c0 5.015 2.718 7.351 7.285 7.351 4.031 0 6.704-1.704 7.918-3.846v5.844c-1.072 1.36-4.133 2.97-8.067 2.97zm13.309-24.877h5.633v16.504l11.656-16.504h5.392v24.342h-5.633V42.577l-11.415 16.358-.242.341h-5.391zm50.996-7.548c-.97.535-3.739.972-7.722 1.313-7.771.73-9.519 3.798-10.149 10.76 1.894-2.728 4.858-4.528 9.229-4.528 5.973 0 10.928 3.018 10.928 11.83 0 8.616-4.566 13-12.238 13-8.259 0-12.872-4.917-12.872-16.164 0-13.436 3.691-18.84 12.045-20.203 3.74-.634 8.791-.828 10.783-1.85v5.842h-.004zm-10.345 27.215c3.836 0 6.702-2.045 6.702-7.35 0-5.063-2.379-7.255-6.458-7.255-4.275 0-6.899 2.288-6.899 6.816 0 4.527 2.236 7.79 6.655 7.79zm16.173-7.595c0-8.42 5.099-12.61 12.676-12.61 7.527.048 12.436 4.333 12.436 12.805 0 8.421-5.102 12.56-12.629 12.61-7.579 0-12.483-4.285-12.483-12.805zm5.779.147c0 5.355 2.526 7.691 6.799 7.691 4.323 0 6.752-2.482 6.752-7.643v-.147c0-5.355-2.576-7.691-6.851-7.691-4.323.048-6.702 2.533-6.702 7.643v.147h.002z"/></g></svg><view id="logotype-symbol-sbermiles" viewBox="645.8 253 77 77"/><svg width="77" height="77" fill="none" viewBox="0 0 77 77" x="645.8" y="253" xmlns="http://www.w3.org/2000/svg"><path d="M38.5 0C17.325 0 0 17.325 0 38.5V77h38.5C59.675 77 77 59.675 77 38.5S59.675 0 38.5 0zm18.608 57.43H46.2V36.253l-7.058 10.267h-3.209l-7.058-10.267V57.43h-11.23V22.46h11.55l8.343 12.833 8.341-12.834h11.23V57.43z" fill="#0CE6F4"/></svg><view id="logotype-symbol-sberspasibo" viewBox="568.8 253 77 77"/><svg width="77" height="77" fill="none" viewBox="0 0 77 77" x="568.8" y="253" xmlns="http://www.w3.org/2000/svg"><path d="M38.5 0C17.325 0 0 17.325 0 38.5V77h38.5C59.675 77 77 59.675 77 38.5S59.675 0 38.5 0zm.32 59.033c-11.228 0-20.532-9.304-20.532-20.533 0-11.23 9.304-20.533 20.533-20.533 6.416 0 12.192 2.887 16.041 7.7l-8.341 6.737c-1.925-2.246-4.492-3.529-7.7-3.529-5.454 0-9.625 4.492-9.625 9.625 0 5.454 4.491 9.625 9.625 9.625a9.568 9.568 0 007.7-3.85l8.662 6.738c-3.85 5.133-9.946 8.02-16.362 8.02z" fill="#44D370"/></svg><view id="no-internet" viewBox="568.8 330 26 26"/><svg width="26" height="26" viewBox="0 0 26 26" x="568.8" y="330" xmlns="http://www.w3.org/2000/svg"><title>icon1</title><g transform="translate(-5 -5)" fill="none" fill-rule="evenodd"><path d="M0 0h36v36H0z"/><path d="M14.44 8.854l-.015.13c-.125.59-.775 1.043-1.454.69l-.066-.033a3.616 3.616 0 00-4.432 1.01 3.803 3.803 0 00-.088 4.607c.038.035.086.083.13.137.36.449.385 1.217-.363 1.561l-.088.042c-1.525.754-2.357 2.498-1.968 4.21.38 1.677 1.827 2.857 3.483 2.895l.022.001.118-.017a1.01 1.01 0 011.018 1.257 3.775 3.775 0 00-.033.144c-.345 1.668.465 3.381 1.986 4.135 1.505.746 3.3.353 4.374-.919.04-.081.11-.191.216-.293a1.013 1.013 0 011.52.123l.075.096a3.615 3.615 0 004.435.993c1.497-.742 2.306-2.414 2.001-4.057a1.247 1.247 0 01-.069-.208c-.133-.574.213-1.273 1.015-1.255.042.001.084.002.126.001 1.67-.02 3.137-1.206 3.521-2.896.382-1.68-.412-3.39-1.882-4.166a1.2 1.2 0 01-.183-.07c-.524-.255-.84-.956-.345-1.56l.062-.076a3.802 3.802 0 00-.03-4.684 3.617 3.617 0 00-4.255-1.092 1.48 1.48 0 01-.107.066c-.26.144-.57.195-.9.076a1.076 1.076 0 01-.632-.598 1.129 1.129 0 01-.086-.31C21.129 7.16 19.676 6 18 6c-1.699 0-3.166 1.192-3.56 2.854z" stroke="#19BB4F" stroke-width="2"/><circle stroke="#545461" stroke-width="2" cx="18" cy="18" r="4"/></g></svg><view id="no-mobile-app" viewBox="594.8 330 25 25"/><svg width="25" height="25" viewBox="0 0 25 25" x="594.8" y="330" xmlns="http://www.w3.org/2000/svg"><path d="M12.57 0c2.836.016 5.582.996 7.787 2.778l-2.44 1.79a9.619 9.619 0 104.193 7.926v-.259l2.689-1.975A12.5 12.5 0 1112.57 0zm10.05 4.84a12.966 12.966 0 011.574 2.582L12.248 16.13l-4.99-3.099V9.3l4.99 3.1z" fill="#08A652"/></svg><view id="no-notifications" viewBox="722.8 253 23 22"/><svg width="23" height="22" viewBox="0 0 23 22" x="722.8" y="253" xmlns="http://www.w3.org/2000/svg"><title>↳ Icon Copy</title><g fill="none" fill-rule="evenodd"><path d="M-7-7h36v36H-7z"/><path d="M-7-7h36v36H-7z"/><path d="M1 4.006v15.987c0 .87.226.99.943.513L5.708 18h13.287A3.001 3.001 0 0022 14.994V4.006A3.002 3.002 0 0018.994 1H4.006A3.001 3.001 0 001 4.006z" stroke="#35C866" stroke-width="2"/><path fill="#545461" d="M4 6h15v2H4z"/></g></svg><view id="plus" viewBox="619.8 330 24 24"/><svg width="24" height="24" viewBox="0 0 24 24" x="619.8" y="330" xmlns="http://www.w3.org/2000/svg"><g fill="#19AA57" fill-rule="evenodd"><path d="M11 1a1 1 0 012 0v22a1 1 0 01-2 0V1z"/><path d="M23 11a1 1 0 010 2H1a1 1 0 010-2h22z"/></g></svg><view id="question" viewBox="643.8 330 24 24"/><svg width="24" height="24" viewBox="0 0 24 24" x="643.8" y="330" xmlns="http://www.w3.org/2000/svg"><g fill="none" fill-rule="evenodd"><rect width="20" height="20" x="2" y="2" stroke="#333" rx="10"/><path stroke="#333" d="M12 14.25V12c.77 0 3-.71 3-3.107C15 7.326 13.653 6 12 6c-1.657 0-3 1.29-3 2.893"/><circle cx="12" cy="17" r="1" fill="#333"/></g></svg><view id="save-card" viewBox="691.8 86 54 50"/><svg width="54" height="50" viewBox="0 0 54 50" x="691.8" y="86" xmlns="http://www.w3.org/2000/svg"><g fill="none"><g transform="rotate(20 11.322 51.863)" stroke="#19AA57" stroke-width="2"><rect fill="#FFF" x="1" y="1" width="36" height="23" rx="3"/><path d="M2.5 8.208H36" stroke-linecap="round"/></g><g transform="translate(0 18)"><rect stroke="#19AA57" stroke-width="2.4" fill="#19AA57" x="1.2" y="11.2" width="22.6" height="19.6" rx="2.4"/><path d="M11 1.2A5.8 5.8 0 005.2 7v10.6a1.2 1.2 0 001.2 1.2h12.2a1.2 1.2 0 001.2-1.2V7A5.8 5.8 0 0014 1.2h-3z" stroke="#19AA57" stroke-width="2.4"/><circle fill="#FFF" cx="13" cy="19" r="3"/><path fill="#FFF" d="M12 20h2v5h-2z"/></g></g></svg><view id="sberbank" viewBox="448.8 193 212 34"/><svg fill="none" height="34" width="212" viewBox="0 0 212 34" x="448.8" y="193" xmlns="http://www.w3.org/2000/svg"><linearGradient id="axa" gradientUnits="userSpaceOnUse" x1="5.773" x2="1.482" y1="28.53" y2="16.126"><stop offset=".144" stop-color="#f2e913"/><stop offset=".304" stop-color="#e7e518"/><stop offset=".582" stop-color="#cadb26"/><stop offset=".891" stop-color="#a3cd39"/></linearGradient><linearGradient id="axb" gradientUnits="userSpaceOnUse" x1="6.1" x2="17.153" y1="5.675" y2="1.463"><stop offset=".059" stop-color="#0fa8e0"/><stop offset=".538" stop-color="#0099f9"/><stop offset=".923" stop-color="#0291eb"/></linearGradient><linearGradient id="axc" gradientUnits="userSpaceOnUse" x1="15.892" x2="28.39" y1="31.631" y2="28.806"><stop offset=".123" stop-color="#a3cd39"/><stop offset=".285" stop-color="#86c339"/><stop offset=".869" stop-color="#21a038"/></linearGradient><linearGradient id="axd" gradientUnits="userSpaceOnUse" x1="16.178" x2="26.864" y1="1.317" y2="4.614"><stop offset=".057" stop-color="#0291eb"/><stop offset=".79" stop-color="#0c8acb"/></linearGradient><linearGradient id="axe" gradientUnits="userSpaceOnUse" x1="5.379" x2="17.011" y1="27.928" y2="32.274"><stop offset=".132" stop-color="#f2e913"/><stop offset=".298" stop-color="#ebe716"/><stop offset=".531" stop-color="#d9e01f"/><stop offset=".802" stop-color="#bbd62d"/><stop offset=".983" stop-color="#a3cd39"/></linearGradient><linearGradient id="axf" gradientUnits="userSpaceOnUse" x1="1.462" x2="6.131" y1="17.476" y2="5.331"><stop offset=".07" stop-color="#a3cd39"/><stop offset=".26" stop-color="#81c55f"/><stop offset=".922" stop-color="#0fa8e0"/></linearGradient><g fill="#21a038"><path d="M137.615 14.894h-5.113v-4.362h11.024V7.269h-15.253v19.532h8.8c4.937 0 7.767-2.236 7.767-6.136 0-3.716-2.551-5.77-7.225-5.77zm-.732 8.669h-4.381v-5.415h4.396c2.669 0 3.92.89 3.92 2.707 0 1.818-1.334 2.708-3.935 2.708z"/><path d="M196.522 26.776h-4.274V7.241h4.274v8.192h2.328l6.278-8.203h4.846l-7.453 9.303 8.651 10.243h-5.67l-6.359-7.684h-2.621z"/><path d="M161.302 22.956h-8.971l-1.524 3.767h-4.514l8.42-19.384h4.513l8.272 19.384h-4.671zm-1.411-3.517l-3.046-7.533-3.076 7.533z"/><path d="M174.808 7.34v8.093h8.778V7.339h4.375v19.384h-4.375V19.08h-8.778v7.643h-4.374V7.339z"/><path d="M95.715 10.488l4.423-3.257H85.334v19.574h14.804v-3.257H89.56v-5.014h9.02v-3.258h-9.02v-4.788z"/><path d="M74.16 14.86h-5.138V10.49h8.206l4.422-3.27H64.8v19.574h8.818c4.948 0 7.784-2.24 7.784-6.15 0-3.723-2.571-5.783-7.24-5.783zm-.733 8.688h-4.405V18.12h4.405c2.675 0 3.929.891 3.929 2.713s-1.323 2.714-3.93 2.714z"/><path d="M112.126 7.231h-8.058v19.574h4.238v-5.543h3.834c5.145 0 8.34-2.704 8.34-7.026 0-4.321-3.21-7.005-8.354-7.005zm-.09 10.77h-3.73v-7.513h3.745c2.708 0 4.197 1.335 4.197 3.757s-1.504 3.757-4.212 3.757z"/><path d="M57.547 22.567a7.561 7.561 0 01-3.647.915c-3.807 0-6.571-2.72-6.571-6.464 0-3.745 2.764-6.464 6.57-6.464a6.435 6.435 0 013.844 1.188l3.028-2.234-.199-.176c-1.768-1.554-4.134-2.377-6.836-2.377-2.93 0-5.59.99-7.49 2.784a9.694 9.694 0 00-2.971 7.154 10.03 10.03 0 002.951 7.258c1.911 1.866 4.565 2.894 7.475 2.894 3.046 0 5.703-1.06 7.507-2.992l-2.734-2.015z"/><path d="M30.454 6.607a16.933 16.933 0 012.038 3.38L17 21.402l-6.472-4.057v-4.88l6.472 4.057z"/></g><path d="M3.926 17c0-.22.006-.436.017-.654l-3.922-.195A16.943 16.943 0 004.98 29.02l2.782-2.781A13.028 13.028 0 013.926 17z" fill="url(#axa)"/><path d="M17 3.927c.22 0 .436.008.654.018l.195-3.924A16.944 16.944 0 004.98 4.98l2.78 2.781A13.035 13.035 0 0117 3.927z" fill="url(#axb)"/><path d="M17 30.074c-.22 0-.437-.006-.654-.017l-.196 3.922a16.944 16.944 0 0012.87-4.958l-2.78-2.781A13.034 13.034 0 0117 30.074z" fill="url(#axc)"/><path d="M24.37 6.209l3.307-2.437A16.93 16.93 0 0017 0v3.927c2.733 0 5.27.843 7.37 2.282z" fill="url(#axd)"/><path d="M34 17c0-1.04-.093-2.058-.272-3.045l-3.66 2.696a13.042 13.042 0 01-4.302 10.039l2.638 2.916A16.95 16.95 0 0034 17z" fill="#21a038"/><path d="M17 30.074a13.042 13.042 0 01-9.69-4.307l-2.915 2.638A16.958 16.958 0 0017 34z" fill="url(#axe)"/><path d="M8.233 7.31L5.595 4.394A16.957 16.957 0 000 17h3.928a13.036 13.036 0 014.305-9.69z" fill="url(#axf)"/></svg><view id="sberbank-id" viewBox="448.8 227 144 26"/><svg width="144" height="26" viewBox="0 0 144 26" x="448.8" y="227" xmlns="http://www.w3.org/2000/svg"><path d="M3.479 3.382l4.736 2.731L18.805 0c.542.232 1.065.5 1.567.798L8.215 7.84 2.533 4.557c.294-.41.61-.801.946-1.175zM1.786 5.72l6.43 3.707 13.443-7.76c.419.319.818.662 1.197 1.027l-14.64 8.45-7.097-4.095c.199-.457.422-.9.667-1.33zM.606 8.432l7.61 4.388 15.656-9.033c.32.385.618.788.895 1.207L8.215 14.536.235 9.93c.095-.51.22-1.01.371-1.5zm-.575 3.1l8.184 4.73L25.502 6.25A13.52 13.52 0 0127 12.457C27 19.937 20.956 26 13.5 26S0 19.937 0 12.457c0-.31.01-.619.031-.924zm40.055 8.442C35.508 19.974 33 17.25 33 13.09c0-4.41 2.47-7.037 7.01-7.037 2.3 0 3.458.48 3.971.71l-.55 1.591c-.76-.23-1.616-.537-3.383-.537C37.351 7.8 35.09 9.275 35.09 12.9c0 3.7 2.356 5.31 5.338 5.31 1.273 0 2.318-.19 3.135-.42l.475 1.59c-.74.288-1.862.595-3.952.595zm9.746-.02c-2.85 0-4.598-1.802-4.598-6.02 0-2.147.4-5.521 1.596-6.652 1.026-.997 3.82-1.668 7.068-2.282l.323 1.802c-2.888.499-5.434.959-6.08 1.572-.551.537-.798 1.764-.893 2.685.874-.48 2.052-.94 3.515-.94 2.489 0 4.085 1.246 4.085 4.429 0 3.739-2.166 5.407-5.016 5.407zm.152-1.61c2.242 0 2.869-1.917 2.869-3.72 0-1.667-.722-2.952-2.584-2.952-1.197 0-2.166.422-3.097.901-.019.345-.019.844-.019 1.189 0 3.125.931 4.582 2.83 4.582zm11.512 1.668c-3.116 0-5.11-1.227-5.11-5.292 0-4.237 2.09-5.675 4.844-5.675 2.774 0 3.97 1.88 3.97 5.273v.71h-6.82c.038 2.856 1.558 3.316 3.572 3.316.741 0 2.033-.268 2.679-.422l.323 1.592c-.57.191-1.881.498-3.458.498zm-3.078-6.384h4.712c.019-1.86-.665-3.125-2.128-3.125-1.425 0-2.432 1.073-2.584 3.125zM67.308 24V9.314h1.977v.824c.608-.46 1.71-1.073 2.773-1.073 2.736 0 4.313 1.725 4.313 5.119 0 4.371-2.508 5.809-5.224 5.809-.78 0-1.387-.096-1.862-.153V24h-1.976zm3.915-5.618c2.07 0 3.134-1.668 3.134-3.892 0-2.109-.589-3.72-2.811-3.72-.874 0-1.92.595-2.261.787v6.634c.418.057.912.191 1.938.191zm11.417 1.573c-2.85 0-4.598-1.803-4.598-6.02 0-2.148.4-5.522 1.596-6.653 1.026-.997 3.819-1.668 7.068-2.282l.323 1.802c-2.888.499-5.434.959-6.08 1.572-.551.537-.798 1.764-.893 2.685.874-.48 2.052-.94 3.515-.94 2.489 0 4.084 1.246 4.084 4.429 0 3.739-2.165 5.407-5.015 5.407zm.152-1.61c2.242 0 2.869-1.918 2.869-3.72 0-1.668-.722-2.953-2.584-2.953-1.197 0-2.166.422-3.097.901-.019.345-.019.844-.019 1.189 0 3.125.93 4.582 2.83 4.582zm9.365 1.59c-1.976 0-3.135-1.035-3.135-3.01 0-2.588 2.318-3.144 4.123-3.163l2.28-.038v-1.17c0-1.457-.76-1.764-2.432-1.764-.988 0-2.128.326-2.736.48l-.399-1.515c.665-.288 1.995-.69 3.572-.69 2.565 0 3.933.805 3.933 2.952v5.484c0 .651.456.786.95.824l-.095 1.553c-.133.02-.266.02-.418.02-.97 0-2.052-.346-2.223-1.266-.57.402-1.634 1.303-3.42 1.303zm.475-1.59c1.102 0 2.394-.749 2.793-.921v-2.416l-2.223.096c-1.425.038-2.242.69-2.242 1.649 0 1.188.684 1.591 1.672 1.591zm8.036 1.437V9.314h1.976v4.429h4.901v-4.43h1.976v10.469h-1.976v-4.448h-4.901v4.448h-1.976zm20.194.173c-.988-.058-2.127-.288-3.495-1.975l-2.888-3.566 4.047-5.1h2.26l-4.16 4.946 1.995 2.301c.911 1.055 1.728 1.668 2.564 1.898l-.323 1.496zm-8.435-.173V9.314h1.976v10.468h-1.976zm14.513 0V6.227h2.033v13.555h-2.033zm5.547 0V6.227h3.952c4.426 0 7.561 2.224 7.561 6.73 0 4.735-2.869 6.825-7.447 6.825h-4.066zm2.014-1.668h2.26c3.363 0 5.206-1.687 5.206-4.946 0-3.586-2.109-5.273-5.585-5.273H134.5v10.219z" fill="#2F9A41" fill-rule="evenodd"/></svg><view id="sbermiles-logo" viewBox="448.8 359 71 40"/><svg width="71" height="40" fill="none" viewBox="0 0 71 40" x="448.8" y="359" xmlns="http://www.w3.org/2000/svg"><circle cx="52" cy="20" r="19" fill="#D0DBDC"/><path d="M47.147 22.113v1.47h-2.455v2.294h2.455v2.405h3.19v-2.405h5.668v-2.294h-5.667v-1.47h3.525c1.674 0 2.99-.445 3.972-1.314.982-.869 1.473-2.004 1.473-3.407 0-1.404-.491-2.517-1.473-3.386-.982-.868-2.298-1.314-3.972-1.314h-6.716v7.127h-2.455v2.294h2.455zm3.19-6.614h3.102c1.63 0 2.633.757 2.633 2.16 0 1.358-1.004 2.16-2.633 2.16h-3.101v-4.32z" fill="#fff"/><path fill-rule="evenodd" clip-rule="evenodd" d="M22.152.892a3 3 0 00-4.242 0L.953 17.848a3 3 0 000 4.243L17.91 39.047a3 3 0 004.242 0L39.11 22.091a3 3 0 000-4.243L22.152.892zm-6.14 18.42v7.595h-3.594V14.603h3.757l3.92 4.587 3.946-4.587h3.757v12.304h-3.595v-7.594l-3.352 3.822h-1.514l-3.324-3.822z" fill="#28AED7"/></svg><view id="spasibo-logo" viewBox="448.8 86 243 107"/><svg viewBox="0 0 243.4 106.6" width="243" height="107" x="448.8" y="86" xmlns="http://www.w3.org/2000/svg"><path d="M63.4 31.4h-21l10.5-10.5z" fill="#00af60"/><path d="M52.9 20.9L42.4 31.4 31.9 20.9z" fill="#16b36c"/><path d="M84.4 31.4h-21l10.5-10.5z" fill="#36b45f"/><path d="M126.4 31.4h-21l10.5-10.5z" fill="#f05e34"/><path d="M136.9 20.9l-10.5 10.5-10.5-10.5z" fill="#f16c4d"/><path d="M147.4 31.4h-21l10.5-10.5z" fill="#ee5053"/><path d="M178.9 20.9l-10.5 10.5-10.5-10.5z" fill="#a3539f"/><path d="M189.4 31.4h-21l10.5-10.5z" fill="#803f97"/><path d="M168.4 31.4h-21l10.5-10.5z" fill="#b35084"/><path d="M210.4 31.4h-21l10.5-10.5z" fill="#713e97"/><path d="M42.4 31.4h-21l10.5-10.5z" fill="#00ad6c"/><path d="M21 22.3H0l10.5-10.5z" fill="#00b69e"/><path d="M74.9 13.4h-21L64.4 2.9z" fill="#88c557"/><path d="M133.7 0h21l-10.5 10.5z" fill="#f17481"/><path d="M21 22.3L10.5 32.8 0 22.3z" fill="#24b9a8"/><path d="M65.6 82.9L55 93.4 44.5 82.9z" fill="#9bcf89"/><path d="M91 96.1l10.5-10.5L112 96.1z" fill="#c4db74"/><path d="M91 96.1h21l-10.5 10.5z" fill="#dfe681"/><path d="M189.4 73.4l-10.5 10.5-10.5-10.5z" fill="#c588bb"/><path d="M42.4 73.4L31.9 83.9 21.4 73.4z" fill="#75c7b1"/><path d="M84.4 73.4L73.9 83.9 63.4 73.4z" fill="#b9d76d"/><path d="M94.9 83.9h-21l10.5-10.5z" fill="#cfdf6e"/><path d="M84.4 73.4l10.5 10.5 10.5-10.5z" fill="#e7c667"/><path d="M147.4 73.4l-10.5 10.5-10.5-10.5z" fill="#fcbb66"/><path d="M136.9 83.9h-21l10.5-10.5z" fill="#ffc96c"/><path d="M126.4 73.4l-10.5 10.5-10.5-10.5z" fill="#fcbd5e"/><path d="M168.4 73.4l-10.5 10.5-10.5-10.5z" fill="#f394b1"/><path d="M199.9 83.9h-21l10.5-10.5z" fill="#b489be"/><path d="M210.4 73.4l-10.5 10.5-10.5-10.5z" fill="#9a82bc"/><path d="M10.9 62.9h21L21.4 73.4z" fill="#4ebea6"/><path d="M94.9 62.9L84.4 73.4 73.9 62.9z" fill="#a5cf5d"/><path d="M42.4 73.4h-21l10.5-10.5z" fill="#61c2a7"/><path d="M52.9 62.9L42.4 73.4 31.9 62.9z" fill="#65c194"/><path d="M63.4 73.4h-21l10.5-10.5z" fill="#80c78f"/><path d="M73.9 62.9L63.4 73.4 52.9 62.9z" fill="#8dc86e"/><path d="M84.4 73.4h-21l10.5-10.5z" fill="#9fcd5f"/><path d="M115.9 62.9l-10.5 10.5-10.5-10.5z" fill="#faaa47"/><path d="M84.4 73.4h21L94.9 62.9z" fill="#dfb452"/><path d="M136.9 62.9l-10.5 10.5-10.5-10.5z" fill="#f9a343"/><path d="M147.4 73.4h-21l10.5-10.5z" fill="#f9ab5a"/><path d="M126.4 73.4h-21l10.5-10.5z" fill="#fab044"/><path d="M157.9 62.9l-10.5 10.5-10.5-10.5z" fill="#f6966b"/><path d="M168.4 73.4h-21l10.5-10.5z" fill="#f38ca8"/><path d="M178.9 62.9l-10.5 10.5-10.5-10.5z" fill="#c074af"/><path d="M189.4 73.4h-21l10.5-10.5z" fill="#c07bb3"/><path d="M199.9 62.9l-10.5 10.5-10.5-10.5z" fill="#9672b1"/><path d="M210.4 73.4h-21l10.5-10.5z" fill="#927db8"/><path d="M220.9 62.9l-10.5 10.5-10.5-10.5z" fill="#8a78b6"/><path d="M31.9 62.9h-21l10.5-10.5z" fill="#3dbb9f"/><path d="M147.4 52.4l-10.5 10.5-10.5-10.5zm-21 0l-10.5 10.5-10.5-10.5z" fill="#f69138"/><path d="M94.9 62.9h-21l10.5-10.5z" fill="#91c85c"/><path d="M52.9 62.9h-21l10.5-10.5z" fill="#44ba8c"/><path d="M42.4 52.4L31.9 62.9 21.4 52.4z" fill="#41bb9b"/><path d="M73.9 62.9h-21l10.5-10.5z" fill="#77c05b"/><path d="M84.4 52.4L73.9 62.9 63.4 52.4z" fill="#6cbf66"/><path d="M63.4 52.4L52.9 62.9 42.4 52.4z" fill="#79c15f"/><path d="M84.4 52.4l10.5 10.5 10.5-10.5z" fill="none"/><path d="M115.9 62.9h-21l10.5-10.5z" fill="#f7983b"/><path d="M157.9 62.9h-21l10.5-10.5z" fill="#f48768"/><path d="M136.9 62.9h-21l10.5-10.5z" fill="#f89c44"/><path d="M178.9 62.9h-21l10.5-10.5z" fill="#b56cab"/><path d="M168.4 52.4l10.5 10.5 10.5-10.5z" fill="#9d69ab"/><path d="M168.4 52.4l-10.5 10.5-10.5-10.5z" fill="#d770ab"/><path d="M199.9 62.9h-21l10.5-10.5z" fill="#8d66ab"/><path d="M210.4 52.4l-10.5 10.5-10.5-10.5z" fill="#8165ab"/><path d="M220.9 62.9h-21l10.5-10.5z" fill="#836eb0"/><path d="M222.4 47.3l.1.1 10.3 10.3 10.4-10.3.1-.1-.1-.1-10.4-10.3-10.3 10.3z" fill="#a58bc0"/><path d="M222.4 47.4l10.5-10.5 10.5 10.5z" fill="#957bb7"/><path d="M136.9 41.9l-10.5 10.5-10.5-10.5z" fill="#f37932"/><path d="M94.9 41.9L84.4 52.4 73.9 41.9z" fill="#6cbe64"/><path d="M105.4 52.4L94.9 62.9 84.4 52.4z" fill="#b4b457"/><path d="M52.9 41.9L42.4 52.4 31.9 41.9z" fill="#34b780"/><path d="M31.9 41.9L21.4 52.4 10.9 41.9z" fill="#00b593"/><path d="M73.9 41.9L63.4 52.4 52.9 41.9z" fill="#50b85e"/><path d="M115.9 41.9l-10.5 10.5-10.5-10.5z" fill="#f58745"/><path d="M157.9 41.9l-10.5 10.5-10.5-10.5z" fill="#f06673"/><path d="M178.9 41.9l-10.5 10.5-10.5-10.5z" fill="#af549f"/><path d="M199.9 41.9l-10.5 10.5-10.5-10.5z" fill="#8856a2"/><path d="M147.4 52.4h-21l10.5-10.5zm-21 0h-21l10.5-10.5z" fill="#f48139"/><path d="M42.4 52.4h-21l10.5-10.5z" fill="#00b590"/><path d="M63.4 52.4h-21l10.5-10.5z" fill="#5cbb61"/><path d="M84.4 52.4h-21l10.5-10.5z" fill="#60bc60"/><path d="M84.4 52.4h21L94.9 41.9z" fill="#cb9c49"/><path d="M168.4 52.4h21l-10.5-10.5z" fill="#9a58a2"/><path d="M168.4 52.4h-21l10.5-10.5z" fill="#c966a7"/><path d="M210.4 52.4h-21l10.5-10.5z" fill="#7f5da7"/><path d="M220.9 41.9l-10.5 10.5-10.5-10.5z" fill="#7a5ca6"/><path d="M136.9 41.9h-21l10.5-10.5z" fill="#f27237"/><path d="M52.9 41.9h-21l10.5-10.5z" fill="#00b273"/><path d="M94.9 41.9h-21l10.5-10.5z" fill="#5dbb5c"/><path d="M178.9 41.9h-21l10.5-10.5z" fill="#a84e9d"/><path d="M42.4 31.4L31.9 41.9 21.4 31.4z" fill="#02b37c"/><path d="M31.9 41.9h-21l10.5-10.5z" fill="#00ae89"/><path d="M73.9 41.9h-21l10.5-10.5z" fill="#28b467"/><path d="M63.4 31.4L52.9 41.9 42.4 31.4z" fill="#05b268"/><path d="M84.4 31.4L73.9 41.9 63.4 31.4z" fill="#4cb863"/><path d="M115.9 41.9h-21l10.5-10.5z" fill="#f37b41"/><path d="M126.4 31.4l-10.5 10.5-10.5-10.5z" fill="#f16937"/><path d="M147.4 31.4l-10.5 10.5-10.5-10.5z" fill="#f06360"/><path d="M157.9 41.9h-21l10.5-10.5z" fill="#e1566d"/><path d="M168.4 31.4l-10.5 10.5-10.5-10.5z" fill="#ca5483"/><path d="M189.4 31.4l-10.5 10.5-10.5-10.5z" fill="#86479b"/><path d="M105.4 31.4L94.9 41.9 84.4 31.4z" fill="#75c064"/><path d="M199.9 41.9h-21l10.5-10.5z" fill="#824f9f"/><path d="M210.4 31.4l-10.5 10.5-10.5-10.5z" fill="#734c9d"/><path d="M220.9 41.9h-21l10.5-10.5z" fill="#7354a2"/><path d="M63.4 31.4h-21l10.5-10.5z" fill="#00af60"/><path d="M52.9 20.9L42.4 31.4 31.9 20.9z" fill="#16b36c"/><path d="M84.4 31.4h-21l10.5-10.5z" fill="#36b45f"/><path d="M126.4 31.4h-21l10.5-10.5z" fill="#f05e34"/><path d="M136.9 20.9l-10.5 10.5-10.5-10.5z" fill="#f16c4d"/><path d="M147.4 31.4h-21l10.5-10.5z" fill="#ee5053"/><path d="M178.9 20.9l-10.5 10.5-10.5-10.5z" fill="#a3539f"/><path d="M189.4 31.4h-21l10.5-10.5z" fill="#803f97"/><path d="M168.4 31.4h-21l10.5-10.5z" fill="#b35084"/><path d="M210.4 31.4h-21l10.5-10.5z" fill="#713e97"/><path d="M42.4 31.4h-21l10.5-10.5z" fill="#00ad6c"/><path d="M21 22.3H0l10.5-10.5z" fill="#00b69e"/><path d="M74.9 13.4h-21L64.4 2.9z" fill="#88c557"/><path d="M133.7 0h21l-10.5 10.5z" fill="#f17481"/><path d="M21 22.3L10.5 32.8 0 22.3z" fill="#24b9a8"/><path d="M65.6 82.9L55 93.4 44.5 82.9z" fill="#9bcf89"/><path d="M91 96.1l10.5-10.5L112 96.1z" fill="#c4db74"/><path d="M91 96.1h21l-10.5 10.5z" fill="#dfe681"/><path d="M189.4 73.4l-10.5 10.5-10.5-10.5z" fill="#c588bb"/><path d="M42.4 73.4L31.9 83.9 21.4 73.4z" fill="#75c7b1"/><path d="M84.4 73.4L73.9 83.9 63.4 73.4z" fill="#b9d76d"/><path d="M94.9 83.9h-21l10.5-10.5z" fill="#cfdf6e"/><path d="M84.4 73.4l10.5 10.5 10.5-10.5z" fill="#e7c667"/><path d="M147.4 73.4l-10.5 10.5-10.5-10.5z" fill="#fcbb66"/><path d="M136.9 83.9h-21l10.5-10.5z" fill="#ffc96c"/><path d="M126.4 73.4l-10.5 10.5-10.5-10.5z" fill="#fcbd5e"/><path d="M168.4 73.4l-10.5 10.5-10.5-10.5z" fill="#f394b1"/><path d="M199.9 83.9h-21l10.5-10.5z" fill="#b489be"/><path d="M210.4 73.4l-10.5 10.5-10.5-10.5z" fill="#9a82bc"/><path d="M10.9 62.9h21L21.4 73.4z" fill="#4ebea6"/><path d="M94.9 62.9L84.4 73.4 73.9 62.9z" fill="#a5cf5d"/><path d="M42.4 73.4h-21l10.5-10.5z" fill="#61c2a7"/><path d="M52.9 62.9L42.4 73.4 31.9 62.9z" fill="#65c194"/><path d="M63.4 73.4h-21l10.5-10.5z" fill="#80c78f"/><path d="M73.9 62.9L63.4 73.4 52.9 62.9z" fill="#8dc86e"/><path d="M84.4 73.4h-21l10.5-10.5z" fill="#9fcd5f"/><path d="M115.9 62.9l-10.5 10.5-10.5-10.5z" fill="#faaa47"/><path d="M84.4 73.4h21L94.9 62.9z" fill="#dfb452"/><path d="M136.9 62.9l-10.5 10.5-10.5-10.5z" fill="#f9a343"/><path d="M147.4 73.4h-21l10.5-10.5z" fill="#f9ab5a"/><path d="M126.4 73.4h-21l10.5-10.5z" fill="#fab044"/><path d="M157.9 62.9l-10.5 10.5-10.5-10.5z" fill="#f6966b"/><path d="M168.4 73.4h-21l10.5-10.5z" fill="#f38ca8"/><path d="M178.9 62.9l-10.5 10.5-10.5-10.5z" fill="#c074af"/><path d="M189.4 73.4h-21l10.5-10.5z" fill="#c07bb3"/><path d="M199.9 62.9l-10.5 10.5-10.5-10.5z" fill="#9672b1"/><path d="M210.4 73.4h-21l10.5-10.5z" fill="#927db8"/><path d="M220.9 62.9l-10.5 10.5-10.5-10.5z" fill="#8a78b6"/><path d="M31.9 62.9h-21l10.5-10.5z" fill="#3dbb9f"/><path d="M147.4 52.4l-10.5 10.5-10.5-10.5zm-21 0l-10.5 10.5-10.5-10.5z" fill="#f69138"/><path d="M94.9 62.9h-21l10.5-10.5z" fill="#91c85c"/><path d="M52.9 62.9h-21l10.5-10.5z" fill="#44ba8c"/><path d="M42.4 52.4L31.9 62.9 21.4 52.4z" fill="#41bb9b"/><path d="M73.9 62.9h-21l10.5-10.5z" fill="#77c05b"/><path d="M84.4 52.4L73.9 62.9 63.4 52.4z" fill="#6cbf66"/><path d="M63.4 52.4L52.9 62.9 42.4 52.4z" fill="#79c15f"/><path d="M84.4 52.4l10.5 10.5 10.5-10.5z" fill="none"/><path d="M115.9 62.9h-21l10.5-10.5z" fill="#f7983b"/><path d="M157.9 62.9h-21l10.5-10.5z" fill="#f48768"/><path d="M136.9 62.9h-21l10.5-10.5z" fill="#f89c44"/><path d="M178.9 62.9h-21l10.5-10.5z" fill="#b56cab"/><path d="M168.4 52.4l10.5 10.5 10.5-10.5z" fill="#9d69ab"/><path d="M168.4 52.4l-10.5 10.5-10.5-10.5z" fill="#d770ab"/><path d="M199.9 62.9h-21l10.5-10.5z" fill="#8d66ab"/><path d="M210.4 52.4l-10.5 10.5-10.5-10.5z" fill="#8165ab"/><path d="M220.9 62.9h-21l10.5-10.5z" fill="#836eb0"/><path d="M222.4 47.3l.1.1 10.3 10.3 10.4-10.3.1-.1-.1-.1-10.4-10.3-10.3 10.3z" fill="#a58bc0"/><path d="M222.4 47.4l10.5-10.5 10.5 10.5z" fill="#957bb7"/><path d="M136.9 41.9l-10.5 10.5-10.5-10.5z" fill="#f37932"/><path d="M94.9 41.9L84.4 52.4 73.9 41.9z" fill="#6cbe64"/><path d="M105.4 52.4L94.9 62.9 84.4 52.4z" fill="#b4b457"/><path d="M52.9 41.9L42.4 52.4 31.9 41.9z" fill="#34b780"/><path d="M31.9 41.9L21.4 52.4 10.9 41.9z" fill="#00b593"/><path d="M73.9 41.9L63.4 52.4 52.9 41.9z" fill="#50b85e"/><path d="M115.9 41.9l-10.5 10.5-10.5-10.5z" fill="#f58745"/><path d="M157.9 41.9l-10.5 10.5-10.5-10.5z" fill="#f06673"/><path d="M178.9 41.9l-10.5 10.5-10.5-10.5z" fill="#af549f"/><path d="M199.9 41.9l-10.5 10.5-10.5-10.5z" fill="#8856a2"/><path d="M147.4 52.4h-21l10.5-10.5zm-21 0h-21l10.5-10.5z" fill="#f48139"/><path d="M42.4 52.4h-21l10.5-10.5z" fill="#00b590"/><path d="M63.4 52.4h-21l10.5-10.5z" fill="#5cbb61"/><path d="M84.4 52.4h-21l10.5-10.5z" fill="#60bc60"/><path d="M84.4 52.4h21L94.9 41.9z" fill="#cb9c49"/><path d="M168.4 52.4h21l-10.5-10.5z" fill="#9a58a2"/><path d="M168.4 52.4h-21l10.5-10.5z" fill="#c966a7"/><path d="M210.4 52.4h-21l10.5-10.5z" fill="#7f5da7"/><path d="M220.9 41.9l-10.5 10.5-10.5-10.5z" fill="#7a5ca6"/><path d="M136.9 41.9h-21l10.5-10.5z" fill="#f27237"/><path d="M52.9 41.9h-21l10.5-10.5z" fill="#00b273"/><path d="M94.9 41.9h-21l10.5-10.5z" fill="#5dbb5c"/><path d="M178.9 41.9h-21l10.5-10.5z" fill="#a84e9d"/><path d="M42.4 31.4L31.9 41.9 21.4 31.4z" fill="#02b37c"/><path d="M31.9 41.9h-21l10.5-10.5z" fill="#00ae89"/><path d="M73.9 41.9h-21l10.5-10.5z" fill="#28b467"/><path d="M63.4 31.4L52.9 41.9 42.4 31.4z" fill="#05b268"/><path d="M84.4 31.4L73.9 41.9 63.4 31.4z" fill="#4cb863"/><path d="M115.9 41.9h-21l10.5-10.5z" fill="#f37b41"/><path d="M126.4 31.4l-10.5 10.5-10.5-10.5z" fill="#f16937"/><path d="M147.4 31.4l-10.5 10.5-10.5-10.5z" fill="#f06360"/><path d="M157.9 41.9h-21l10.5-10.5z" fill="#e1566d"/><path d="M168.4 31.4l-10.5 10.5-10.5-10.5z" fill="#ca5483"/><path d="M189.4 31.4l-10.5 10.5-10.5-10.5z" fill="#86479b"/><path d="M105.4 31.4L94.9 41.9 84.4 31.4z" fill="#75c064"/><path d="M199.9 41.9h-21l10.5-10.5z" fill="#824f9f"/><path d="M210.4 31.4l-10.5 10.5-10.5-10.5z" fill="#734c9d"/><path d="M220.9 41.9h-21l10.5-10.5z" fill="#7354a2"/><g><path d="M63.4 31.4h-21l10.5-10.5z" fill="#00af60"/><path d="M52.9 20.9L42.4 31.4 31.9 20.9z" fill="#16b36c"/><path d="M84.4 31.4h-21l10.5-10.5z" fill="#36b45f"/><path d="M126.4 31.4h-21l10.5-10.5z" fill="#f05e34"/><path d="M136.9 20.9l-10.5 10.5-10.5-10.5z" fill="#f16c4d"/><path d="M147.4 31.4h-21l10.5-10.5z" fill="#ee5053"/><path d="M178.9 20.9l-10.5 10.5-10.5-10.5z" fill="#a3539f"/><path d="M189.4 31.4h-21l10.5-10.5z" fill="#803f97"/><path d="M168.4 31.4h-21l10.5-10.5z" fill="#b35084"/><path d="M210.4 31.4h-21l10.5-10.5z" fill="#713e97"/><path d="M42.4 31.4h-21l10.5-10.5z" fill="#00ad6c"/><path d="M21 22.3H0l10.5-10.5z" fill="#00b69e"/><path d="M74.9 13.4h-21L64.4 2.9z" fill="#88c557"/><path d="M133.7 0h21l-10.5 10.5z" fill="#f17481"/><path d="M21 22.3L10.5 32.8 0 22.3z" fill="#24b9a8"/><path d="M65.6 82.9L55 93.4 44.5 82.9z" fill="#9bcf89"/><path d="M91 96.1l10.5-10.5L112 96.1z" fill="#c4db74"/><path d="M91 96.1h21l-10.5 10.5z" fill="#dfe681"/><path d="M189.4 73.4l-10.5 10.5-10.5-10.5z" fill="#c588bb"/><path d="M42.4 73.4L31.9 83.9 21.4 73.4z" fill="#75c7b1"/><path d="M84.4 73.4L73.9 83.9 63.4 73.4z" fill="#b9d76d"/><path d="M94.9 83.9h-21l10.5-10.5z" fill="#cfdf6e"/><path d="M84.4 73.4l10.5 10.5 10.5-10.5z" fill="#e7c667"/><path d="M147.4 73.4l-10.5 10.5-10.5-10.5z" fill="#fcbb66"/><path d="M136.9 83.9h-21l10.5-10.5z" fill="#ffc96c"/><path d="M126.4 73.4l-10.5 10.5-10.5-10.5z" fill="#fcbd5e"/><path d="M168.4 73.4l-10.5 10.5-10.5-10.5z" fill="#f394b1"/><path d="M199.9 83.9h-21l10.5-10.5z" fill="#b489be"/><path d="M210.4 73.4l-10.5 10.5-10.5-10.5z" fill="#9a82bc"/><path d="M10.9 62.9h21L21.4 73.4z" fill="#4ebea6"/><path d="M94.9 62.9L84.4 73.4 73.9 62.9z" fill="#a5cf5d"/><path d="M42.4 73.4h-21l10.5-10.5z" fill="#61c2a7"/><path d="M52.9 62.9L42.4 73.4 31.9 62.9z" fill="#65c194"/><path d="M63.4 73.4h-21l10.5-10.5z" fill="#80c78f"/><path d="M73.9 62.9L63.4 73.4 52.9 62.9z" fill="#8dc86e"/><path d="M84.4 73.4h-21l10.5-10.5z" fill="#9fcd5f"/><path d="M115.9 62.9l-10.5 10.5-10.5-10.5z" fill="#faaa47"/><path d="M84.4 73.4h21L94.9 62.9z" fill="#dfb452"/><path d="M136.9 62.9l-10.5 10.5-10.5-10.5z" fill="#f9a343"/><path d="M147.4 73.4h-21l10.5-10.5z" fill="#f9ab5a"/><path d="M126.4 73.4h-21l10.5-10.5z" fill="#fab044"/><path d="M157.9 62.9l-10.5 10.5-10.5-10.5z" fill="#f6966b"/><path d="M168.4 73.4h-21l10.5-10.5z" fill="#f38ca8"/><path d="M178.9 62.9l-10.5 10.5-10.5-10.5z" fill="#c074af"/><path d="M189.4 73.4h-21l10.5-10.5z" fill="#c07bb3"/><path d="M199.9 62.9l-10.5 10.5-10.5-10.5z" fill="#9672b1"/><path d="M210.4 73.4h-21l10.5-10.5z" fill="#927db8"/><path d="M220.9 62.9l-10.5 10.5-10.5-10.5z" fill="#8a78b6"/><path d="M31.9 62.9h-21l10.5-10.5z" fill="#3dbb9f"/><path d="M147.4 52.4l-10.5 10.5-10.5-10.5zm-21 0l-10.5 10.5-10.5-10.5z" fill="#f69138"/><path d="M94.9 62.9h-21l10.5-10.5z" fill="#91c85c"/><path d="M52.9 62.9h-21l10.5-10.5z" fill="#44ba8c"/><path d="M42.4 52.4L31.9 62.9 21.4 52.4z" fill="#41bb9b"/><path d="M73.9 62.9h-21l10.5-10.5z" fill="#77c05b"/><path d="M84.4 52.4L73.9 62.9 63.4 52.4z" fill="#6cbf66"/><path d="M63.4 52.4L52.9 62.9 42.4 52.4z" fill="#79c15f"/><path d="M84.4 52.4l10.5 10.5 10.5-10.5z" fill="none"/><path d="M115.9 62.9h-21l10.5-10.5z" fill="#f7983b"/><path d="M157.9 62.9h-21l10.5-10.5z" fill="#f48768"/><path d="M136.9 62.9h-21l10.5-10.5z" fill="#f89c44"/><path d="M178.9 62.9h-21l10.5-10.5z" fill="#b56cab"/><path d="M168.4 52.4l10.5 10.5 10.5-10.5z" fill="#9d69ab"/><path d="M168.4 52.4l-10.5 10.5-10.5-10.5z" fill="#d770ab"/><path d="M199.9 62.9h-21l10.5-10.5z" fill="#8d66ab"/><path d="M210.4 52.4l-10.5 10.5-10.5-10.5z" fill="#8165ab"/><path d="M220.9 62.9h-21l10.5-10.5z" fill="#836eb0"/><path d="M222.4 47.3l.1.1 10.3 10.3 10.4-10.3.1-.1-.1-.1-10.4-10.3-10.3 10.3z" fill="#a58bc0"/><path d="M222.4 47.4l10.5-10.5 10.5 10.5z" fill="#957bb7"/><path d="M136.9 41.9l-10.5 10.5-10.5-10.5z" fill="#f37932"/><path d="M94.9 41.9L84.4 52.4 73.9 41.9z" fill="#6cbe64"/><path d="M105.4 52.4L94.9 62.9 84.4 52.4z" fill="#b4b457"/><path d="M52.9 41.9L42.4 52.4 31.9 41.9z" fill="#34b780"/><path d="M31.9 41.9L21.4 52.4 10.9 41.9z" fill="#00b593"/><path d="M73.9 41.9L63.4 52.4 52.9 41.9z" fill="#50b85e"/><path d="M115.9 41.9l-10.5 10.5-10.5-10.5z" fill="#f58745"/><path d="M157.9 41.9l-10.5 10.5-10.5-10.5z" fill="#f06673"/><path d="M178.9 41.9l-10.5 10.5-10.5-10.5z" fill="#af549f"/><path d="M199.9 41.9l-10.5 10.5-10.5-10.5z" fill="#8856a2"/><path d="M147.4 52.4h-21l10.5-10.5zm-21 0h-21l10.5-10.5z" fill="#f48139"/><path d="M42.4 52.4h-21l10.5-10.5z" fill="#00b590"/><path d="M63.4 52.4h-21l10.5-10.5z" fill="#5cbb61"/><path d="M84.4 52.4h-21l10.5-10.5z" fill="#60bc60"/><path d="M84.4 52.4h21L94.9 41.9z" fill="#cb9c49"/><path d="M168.4 52.4h21l-10.5-10.5z" fill="#9a58a2"/><path d="M168.4 52.4h-21l10.5-10.5z" fill="#c966a7"/><path d="M210.4 52.4h-21l10.5-10.5z" fill="#7f5da7"/><path d="M220.9 41.9l-10.5 10.5-10.5-10.5z" fill="#7a5ca6"/><path d="M136.9 41.9h-21l10.5-10.5z" fill="#f27237"/><path d="M52.9 41.9h-21l10.5-10.5z" fill="#00b273"/><path d="M94.9 41.9h-21l10.5-10.5z" fill="#5dbb5c"/><path d="M178.9 41.9h-21l10.5-10.5z" fill="#a84e9d"/><path d="M42.4 31.4L31.9 41.9 21.4 31.4z" fill="#02b37c"/><path d="M31.9 41.9h-21l10.5-10.5z" fill="#00ae89"/><path d="M73.9 41.9h-21l10.5-10.5z" fill="#28b467"/><path d="M63.4 31.4L52.9 41.9 42.4 31.4z" fill="#05b268"/><path d="M84.4 31.4L73.9 41.9 63.4 31.4z" fill="#4cb863"/><path d="M115.9 41.9h-21l10.5-10.5z" fill="#f37b41"/><path d="M126.4 31.4l-10.5 10.5-10.5-10.5z" fill="#f16937"/><path d="M147.4 31.4l-10.5 10.5-10.5-10.5z" fill="#f06360"/><path d="M157.9 41.9h-21l10.5-10.5z" fill="#e1566d"/><path d="M168.4 31.4l-10.5 10.5-10.5-10.5z" fill="#ca5483"/><path d="M189.4 31.4l-10.5 10.5-10.5-10.5z" fill="#86479b"/><path d="M105.4 31.4L94.9 41.9 84.4 31.4z" fill="#75c064"/><path d="M199.9 41.9h-21l10.5-10.5z" fill="#824f9f"/><path d="M210.4 31.4l-10.5 10.5-10.5-10.5z" fill="#734c9d"/><path d="M220.9 41.9h-21l10.5-10.5z" fill="#7354a2"/></g><g fill="#05a357"><path d="M118.5 95.5c0-2.3 1.6-3.9 4-3.9 2.6 0 3.8 1.7 3.8 3.9 0 2.4-1.4 3.9-4 3.9-2.5 0-3.8-1.5-3.8-3.9m6.4.1c0-1.6-.8-2.7-2.4-2.7-1.7 0-2.5 1.2-2.5 2.7 0 1.5.7 2.8 2.4 2.8 1.8-.1 2.5-1.3 2.5-2.8m4.3-2.6h-2.4v-1.2h6.3V93h-2.4v6.3h-1.5zm7.2 2.6c0-2.4 1.5-3.9 4-3.9 1.1 0 1.8.2 2.3.5l-.4 1.1c-.6-.2-1-.3-1.8-.3-1.4 0-2.6.8-2.6 2.6s1.2 2.7 2.8 2.7c.7 0 1.2-.1 1.8-.2l.3 1.1c-.6.2-1.3.4-2.3.4-2.7-.2-4.1-1.6-4.1-4m7.7-3.8h5V93h-3.5v5.2h.9c1.2 0 1.7-.5 1.7-1.2 0-.8-.6-1.2-1.8-1.2h-.7v-1.1h.7c2.1 0 3.3.8 3.3 2.4 0 1.5-1.1 2.3-3.1 2.3h-2.4v-7.6zm6.7 0h4.6V93h-3.2v2h3v1.1h-3v2.1h3.5v1.1h-4.9zm6.2 0h2.7c1.6 0 2.7.9 2.7 2.6 0 1.4-1.1 2.6-3.3 2.6h-.6v-1.1h.7c1.1 0 1.7-.6 1.7-1.4 0-.9-.4-1.4-1.4-1.4h-1.1v6.4H157v-7.7zm6.3 0h5V93h-3.5v5.2h.9c1.2 0 1.7-.5 1.7-1.2 0-.8-.6-1.2-1.7-1.2h-.7v-1.1h.7c2.1 0 3.3.8 3.3 2.4 0 1.5-1.1 2.3-3.1 2.3h-2.4v-7.6zm9 0h1.9l2.6 7.5h-1.5l-.8-2.4h-2.7l-.9 2.4h-1.5l2.9-7.5zm1.8 4l-.9-3.1-1 3.1h1.9zm3.5-4h1.4V95h3.6v-3.2h1.4v7.5h-1.4v-3.2H179v3.2h-1.4zm7.9 0h1.4v3.4l2.9-3.4h1.8l-3.1 3.5 3.3 4h-1.9l-3-4v4h-1.4z"/><path d="M194.7 91.8h1.9l2.6 7.5h-1.5l-.8-2.4h-2.7l-.9 2.4h-1.5l2.9-7.5zm1.8 4l-.9-3.1-1 3.1h1.9z"/></g><g><path d="M81.3 43.9c0-.7-.3-1.2-.8-1.4-1.3-.3-4-.9-7.6-1H71c-3.6.1-6.3.7-7.6 1-.5.1-.8.6-.8 1.4V63h5.9V46.3c1.1-.4 2.7-.5 3.4-.5.7 0 2.4 0 3.5.4v16.7h5.9v-19zm21.8 3c0-1.2-.1-2.8-2.8-4.2-2-1-5.1-1.2-7-1.1-2.7.1-5.6.9-7 1.4-.4.1-.8.3-.8.3l.9 3.8s.3-.1.5-.1c.7-.2 2.5-.6 3.7-.8 1.3-.2 3.4-.4 4.7-.2.9.1 1.8.5 1.8 1.5v2c-2.5 0-3.8 0-5 .1-1.9.2-3.5.5-4.7 1.1-1.7.9-3 2.3-3.1 5.3-.1 2.7.9 4.4 2.8 5.6 1.6.9 4.2 1.4 6.6 1.5 2.4.1 4.3-.1 6.4-.4 1.7-.2 2.9-.6 2.9-.6V46.9zm-5.9 11.8s-1.1.3-3.3.2c-1.8-.1-4-.3-3.8-2.8.1-1.4 1-2 2-2.2.8-.2 2.7-.3 5.2-.1v4.9zm85.4-17c-.6-.1-1.4-.1-2.1-.1-.6 0-1.4 0-2.1.1-2.7.4-7.8 1.1-7.8 8.6v4.2c0 7.5 5.1 8.2 7.8 8.6.6.1 1.4.1 2.1.1.6 0 1.4 0 2.1-.1 2.7-.4 7.8-1.1 7.8-8.6v-4.2c-.1-7.5-5.2-8.2-7.8-8.6m1.7 10.7v2.5c0 1.7-.2 4.2-3.1 4.3h-1.6c-2.8-.1-3.1-2.6-3.1-4.3v-5c0-1.8.2-4.2 3.1-4.3h1.6c2.8.2 3.1 2.6 3.1 4.3v2.5zm-24.1-10.7c-.6-.1-1.4-.1-2.1-.1-.6 0-1.4 0-2.1.1-.6.1-1.3.2-2.2.4.1-2 .4-3 2.2-4 2.6-1.4 7.9-1.7 10.8-1.9l-.1-4.8c-6.8.6-11.8 1.2-14.8 3.2-2.2 1.4-3.7 4-3.7 9v10.9c0 7.5 5.1 8.2 7.8 8.6.6.1 1.4.1 2.1.1.6 0 1.4 0 2.1-.1 2.7-.4 7.8-1.1 7.8-8.6v-4.2c0-7.5-5.1-8.2-7.8-8.6m1.8 10.7v2.5c0 1.7-.2 4.2-3.1 4.3h-1.6c-2.8-.1-3.1-2.6-3.1-4.3v-5c0-1.8.2-4.2 3.1-4.3h1.6c2.8.2 3.1 2.6 3.1 4.3v2.5zm-17.6-10.1c-.2-.2-.4-.4-1.1-.4h-2.8c-.3 0-1-.1-1.4.2-.3.2-.7.9-.9 1.2-.8 1.4-1.5 2.7-2.1 3.7-.6 1-1.1 1.9-1.6 2.7-.1.3-.3.5-.4.8s-.3.5-.5.9-1 1.6-1.5 2.5h-.1v-12h-5.9v19.3c0 .6 0 1 .3 1.3.2.2.4.4 1.1.4h2.8c.7 0 1.2 0 1.5-.2.3-.2.5-.6.9-1.2.6-1 2.8-4.8 3.4-5.8.5-.9 1.1-1.8 1.6-2.7.5-.9.6-1.1 1.2-2h.1v11.9h5.9V44.1c-.2-.9-.1-1.4-.5-1.8m-22.7 16c-.8.2-2.9.7-4.8.6-1.9 0-4.5-.6-4.9-3.5-.2-1.1-.2-2.1-.2-2.9v-.2c0-.8 0-1.8.2-2.9.4-2.5 3-3.4 4.9-3.5 1.9 0 4 .4 4.8.6.2.1.6.2.6.2l.8-3.8s-2.4-.8-4.3-1.1c-2.2-.3-5.2-.3-7.8.6-4.5 1.7-5.2 6.3-5.2 9.9 0 3.6.4 8 5.1 9.9 2.4 1 5.6.9 7.8.6 1.9-.2 4.3-1.1 4.3-1.1l-.8-3.8c.1.2-.3.3-.5.4m-63.4 0c-.8.2-2.9.7-4.8.6-1.9 0-4.5-.9-4.9-3.5-.1-1.1-.2-2.1-.2-2.9v-.2c0-.8 0-1.8.2-2.9.5-2.6 3-3.4 4.9-3.5 1.9 0 4 .4 4.8.6.2.1.6.2.6.2l.7-3.8s-2.4-.8-4.2-1.1c-2.2-.3-5.2-.3-7.8.6-4.5 1.7-5.2 6.3-5.2 9.9 0 3.6.4 8 5.1 9.9 2.4 1 5.6.9 7.8.6 1.9-.2 4.2-1.1 4.2-1.1l-.8-3.8c.1.2-.2.3-.4.4" fill="#fff"/></g></svg><view id="status-fail" viewBox="68 448.8 68 68"/><svg width="68" height="68" viewBox="0 0 68 68" x="68" y="448.8" xmlns="http://www.w3.org/2000/svg"><g fill="none" fill-rule="evenodd"><circle fill="#DC7575" cx="34" cy="34" r="34"/><g fill="#FFF"><path d="M46.205 23.743a1.02 1.02 0 00-1.444-1.444L22.3 44.761a1.02 1.02 0 001.444 1.444l22.462-22.462z"/><path d="M23.743 22.299a1.02 1.02 0 00-1.444 1.444l22.462 22.462a1.02 1.02 0 001.444-1.444L23.743 22.3z"/></g></g></svg><view id="status-fail-circle" viewBox="722.8 275 20 20"/><svg width="20" height="20" viewBox="0 0 20 20" x="722.8" y="275" xmlns="http://www.w3.org/2000/svg"><circle cx="10" cy="10" r="10" fill="#DC7575" fill-rule="evenodd"/></svg><view id="status-success" viewBox="0 448.8 68 68"/><svg width="68" height="68" viewBox="0 0 68 68" y="448.8" xmlns="http://www.w3.org/2000/svg"><title>Group</title><g fill="none" fill-rule="evenodd"><circle fill="#35C866" cx="34" cy="34" r="34"/><path stroke="#FFF" stroke-width="5" stroke-linecap="round" stroke-linejoin="round" d="M21.575 33.02l8.056 9.513L46 25.299"/></g></svg><view id="status-success-circle" viewBox="722.8 295 20 20"/><svg width="20" height="20" viewBox="0 0 20 20" x="722.8" y="295" xmlns="http://www.w3.org/2000/svg"><circle cx="10" cy="10" r="10" fill="#35C866" fill-rule="evenodd"/></svg><view id="trash" viewBox="567.8 359 24 24"/><svg viewBox="0 0 24 24" preserveAspectRatio="xMaxYMid" width="24" height="24" x="567.8" y="359" xmlns="http://www.w3.org/2000/svg"><path d="M19.4 4.1h-2.7v-1c0-1.1-.9-2.1-2.1-2.1H9.9c-1.2.1-2.1 1-2.1 2.1v1H5.1c-.9 0-1.6.7-1.6 1.6v2.6c0 .8.6 1.4 1.3 1.6v9.8c0 2 1.6 3.6 3.6 3.6h7.8c2 0 3.6-1.6 3.6-3.6V9.9c.6-.1 1.2-.8 1.2-1.6V5.7c0-.9-.7-1.6-1.6-1.6zm-9.7-1l.1-.1h4.8c.1 0 .1.1.1.1v1h-5v-1zM5.4 6H19v2H5.4V6zm10.7 15.3H8.4c-.9 0-1.6-.7-1.6-1.6V10h11v9.8c-.1.8-.8 1.5-1.7 1.5z" fill="#c3c3c3"/><path d="M10.1 11.7c-.6 0-1 .4-1 1v6c0 .6.4 1 1 1s1-.4 1-1v-6c0-.6-.4-1-1-1zm4.2 0c-.6 0-1 .4-1 1v6c0 .6.4 1 1 1s1-.4 1-1v-6c0-.6-.4-1-1-1z" fill="#c3c3c3"/></svg><view id="two-cards" viewBox="136 448.8 59 52"/><svg width="59" height="52" viewBox="0 0 59 52" x="136" y="448.8" xmlns="http://www.w3.org/2000/svg"><g stroke-width="2" fill="none"><g transform="rotate(-16 45.264 -51.686)" stroke="#19AA57"><rect fill="#FFF" x="1" y="1" width="36" height="23" rx="3"/><path d="M2.5 8.208H36" stroke-linecap="round"/></g><g transform="rotate(-16 101.302 14.237)"><rect stroke="#19AA57" fill="#19AA57" x="1" y="1" width="36" height="23" rx="3"/><path d="M5.5 18.25h21m-21-12h6" stroke="#FFF" stroke-linecap="round"/></g></g></svg></svg>